<svg width="30" height="30" viewBox="0 0 30 30" fill="none" xmlns="http://www.w3.org/2000/svg">
<path d="M15 0C6.72899 0 0 6.72899 0 15C0 23.271 6.72899 30 15 30C23.271 30 30 23.2711 30 15C30 6.72893 23.271 0 15 0ZM15 28.125C7.76288 28.125 1.87501 22.2371 1.87501 15C1.87501 7.76288 7.76288 1.87501 15 1.87501C22.2371 1.87501 28.125 7.76282 28.125 15C28.125 22.2371 22.2371 28.125 15 28.125ZM23.3203 15C23.3203 15.5178 22.9006 15.9375 22.3828 15.9375H15.9375V22.3828C15.9375 22.9006 15.5177 23.3203 15 23.3203C14.4823 23.3203 14.0625 22.9006 14.0625 22.3828V15.9375H7.61716C7.09942 15.9375 6.67966 15.5178 6.67966 15C6.67966 14.4822 7.09942 14.0625 7.61716 14.0625H14.0625V7.61716C14.0625 7.09936 14.4823 6.67966 15 6.67966C15.5177 6.67966 15.9375 7.09936 15.9375 7.61716V14.0625H22.3828C22.9006 14.0625 23.3203 14.4823 23.3203 15Z" fill="white"/>
</svg>
