<svg xmlns="http://www.w3.org/2000/svg" version="1.1" viewBox="0 0 100 100"><path d="m55.473 55.957h-10.945c-4.8008 0-8.7031 3.9062-8.7031 8.7031v8.5664c-0.003907 0.42578 0.34375 0.77344 0.77344 0.77344h26.809c0.42578 0 0.77344-0.34766 0.77344-0.77344v-8.5664c-0.003907-4.7969-3.9062-8.7031-8.707-8.7031zm7.1562 16.496h-25.258v-7.7891c0-3.9453 3.2109-7.1562 7.1562-7.1562h10.949c3.9453 0 7.1562 3.2109 7.1562 7.1562zm-12.629-17.059c4.0156 0 7.2812-3.2656 7.2812-7.2812 0-4.0195-3.2656-7.2852-7.2812-7.2852s-7.2812 3.2656-7.2812 7.2812 3.2656 7.2852 7.2812 7.2852zm0-13.02c3.1602 0 5.7344 2.5742 5.7344 5.7344 0 3.1641-2.5742 5.7344-5.7344 5.7344s-5.7344-2.5742-5.7344-5.7344 2.5742-5.7344 5.7344-5.7344zm-5.668-8.6953c0.78906 1.0078 0.78906 1.0078 0.74219 2.2852-0.011719 0.34766-0.027344 0.76953-0.039063 1.293-0.011718 0.625 0.28516 1.2188 0.78906 1.5859 0.33203 0.24219 0.72656 0.36328 1.125 0.36328 0.21094 0 0.42188-0.035156 0.625-0.10547 0.49609-0.17187 0.89453-0.31641 1.2188-0.4375 1.207-0.43359 1.207-0.43359 2.4102 0.007813 0.32422 0.12109 0.72266 0.26562 1.2188 0.4375 0.59375 0.20312 1.2461 0.10547 1.7539-0.26172 0.50391-0.36719 0.80078-0.96094 0.78906-1.5859-0.007813-0.52734-0.023438-0.94922-0.039063-1.293-0.046875-1.2812-0.046875-1.2812 0.74219-2.2852 0.21484-0.27344 0.47656-0.60547 0.79297-1.0273 0.375-0.5 0.48828-1.1523 0.29297-1.7461-0.19141-0.59375-0.66406-1.0586-1.2656-1.2422-0.50391-0.15625-0.91016-0.26953-1.2422-0.36328-1.2305-0.35156-1.2305-0.35156-1.9453-1.4141-0.19141-0.28906-0.42969-0.63672-0.73047-1.0703-0.35937-0.51562-0.94531-0.82031-1.5703-0.82031s-1.2109 0.30469-1.5703 0.82031c-0.30469 0.43359-0.53906 0.78125-0.73047 1.0703-0.71484 1.0625-0.71484 1.0625-1.9453 1.4141-0.33203 0.09375-0.73828 0.21094-1.2422 0.36328-0.59766 0.18359-1.0703 0.64844-1.2656 1.2422-0.19141 0.59375-0.082032 1.2461 0.29297 1.7461 0.31641 0.41797 0.57813 0.75 0.79297 1.0234zm0.38672-2.293c0.023438-0.066407 0.082031-0.1875 0.24609-0.23828 0.49219-0.15234 0.88672-0.26172 1.2148-0.35547 1.6797-0.47656 1.8359-0.58984 2.8086-2.0391 0.1875-0.28125 0.41797-0.625 0.71484-1.043 0.089844-0.14063 0.22656-0.16406 0.29688-0.16406s0.20703 0.019531 0.30078 0.16016c0.29688 0.42188 0.52344 0.76172 0.71094 1.043 0.97266 1.4492 1.1289 1.5625 2.8086 2.0391 0.32422 0.09375 0.72266 0.20313 1.2148 0.35547 0.16016 0.050781 0.22266 0.17188 0.24609 0.23828 0.023438 0.066407 0.042969 0.20313-0.058594 0.33594-0.30859 0.41016-0.5625 0.73438-0.77344 1-1.0781 1.3711-1.1367 1.5586-1.0742 3.3008 0.011719 0.33594 0.027344 0.75 0.035156 1.2617 0.003906 0.16797-0.09375 0.26562-0.15234 0.30469-0.058593 0.042968-0.17969 0.10547-0.33984 0.050781-0.48438-0.16797-0.87109-0.30859-1.1914-0.42578-1.6406-0.60156-1.832-0.60156-3.4727 0-0.31641 0.11719-0.70312 0.25781-1.1914 0.42578-0.16016 0.054687-0.28125-0.007813-0.33984-0.046875-0.058594-0.042969-0.15234-0.13672-0.15234-0.30859 0.007813-0.51562 0.023438-0.92578 0.035157-1.2617 0.066406-1.7461 0.003906-1.9297-1.0742-3.3008-0.20703-0.26562-0.46484-0.58984-0.77344-1-0.082031-0.13281-0.0625-0.26562-0.039062-0.33203zm-11.508 10.082h-6.4375c-0.42578 0-0.77344-0.34766-0.77344-0.77344 0-0.42578 0.34766-0.77344 0.77344-0.77344h6.4375c0.42578 0 0.77344 0.34766 0.77344 0.77344 0 0.42969-0.34375 0.77344-0.77344 0.77344zm2.6367 8.293-5.5742 3.2188c-0.12109 0.070312-0.25391 0.10547-0.38672 0.10547-0.26562 0-0.52734-0.14063-0.67188-0.38672-0.21484-0.37109-0.085938-0.84375 0.28516-1.0586l5.5742-3.2188c0.37109-0.21484 0.84375-0.085937 1.0586 0.28516 0.21094 0.36719 0.085938 0.83984-0.28516 1.0547zm-6.6328-21.066c0.21484-0.37109 0.6875-0.49609 1.0586-0.28516l5.5742 3.2188c0.37109 0.21484 0.49609 0.6875 0.28516 1.0586-0.14453 0.25-0.40234 0.38672-0.67187 0.38672-0.13281 0-0.26563-0.035157-0.38672-0.10547l-5.5742-3.2188c-0.37109-0.21094-0.49609-0.68359-0.28516-1.0547zm44.785 12c0 0.42578-0.34766 0.77344-0.77344 0.77344h-6.4375c-0.42578 0-0.77344-0.34766-0.77344-0.77344 0-0.42578 0.34766-0.77344 0.77344-0.77344h6.4375c0.42578 0 0.77344 0.34766 0.77344 0.77344zm-3.2148 12c-0.14453 0.25-0.40234 0.38672-0.67188 0.38672-0.13281 0-0.26562-0.035156-0.38672-0.10547l-5.5742-3.2188c-0.37109-0.21484-0.49609-0.6875-0.28516-1.0586 0.21484-0.37109 0.6875-0.49609 1.0586-0.28516l5.5742 3.2188c0.37109 0.21875 0.49609 0.69141 0.28516 1.0625zm-6.918-20.008c-0.21484-0.37109-0.085938-0.84375 0.28516-1.0586l5.5742-3.2188c0.37109-0.21484 0.84375-0.085937 1.0586 0.28516 0.21484 0.37109 0.085938 0.84375-0.28516 1.0586l-5.5742 3.2188c-0.12109 0.070313-0.25391 0.10547-0.38672 0.10547-0.26562 0-0.52734-0.14062-0.67187-0.39062z" fill="#B6B7B8" stroke="#B6B7B8" stroke-width="0.8"/></svg>
